<svg width="148" height="35" viewBox="0 0 148 35" fill="none" xmlns="http://www.w3.org/2000/svg">
<path d="M23.3579 23.2441C21.4211 23.2441 19.8423 22.6501 18.6216 21.4619C17.409 20.2738 16.8027 18.6909 16.8027 16.7134V16.3716C16.8027 15.0451 17.0591 13.861 17.5718 12.8193C18.0845 11.7695 18.8088 10.9639 19.7446 10.4023C20.6886 9.83268 21.7629 9.54785 22.9673 9.54785C24.7739 9.54785 26.194 10.1175 27.2275 11.2568C28.2692 12.3962 28.79 14.0116 28.79 16.103V17.5435H20.3794C20.4933 18.4061 20.8351 19.0978 21.4048 19.6187C21.9826 20.1395 22.7109 20.3999 23.5898 20.3999C24.9489 20.3999 26.0109 19.9076 26.7759 18.9229L28.5093 20.8638C27.9803 21.6125 27.2642 22.1984 26.3608 22.6216C25.4575 23.0366 24.4565 23.2441 23.3579 23.2441ZM22.9551 12.4043C22.2552 12.4043 21.6855 12.6403 21.2461 13.1123C20.8148 13.5843 20.5381 14.2598 20.416 15.1387H25.3232V14.8579C25.307 14.0767 25.0954 13.4744 24.6885 13.0513C24.2816 12.62 23.7038 12.4043 22.9551 12.4043ZM35.8335 13.7349L38.0552 9.79199H41.8271L38.0674 16.2617L41.9858 23H38.2017L35.8457 18.8496L33.502 23H29.7056L33.624 16.2617L29.8765 9.79199H33.6606L35.8335 13.7349ZM55.4136 16.5181C55.4136 18.5526 54.9497 20.1842 54.022 21.4131C53.1024 22.6338 51.8573 23.2441 50.2866 23.2441C48.952 23.2441 47.8737 22.7803 47.0518 21.8525V28.0781H43.5239V9.79199H46.7954L46.9175 11.0859C47.772 10.0605 48.8869 9.54785 50.2622 9.54785C51.8898 9.54785 53.1553 10.1501 54.0586 11.3545C54.9619 12.5589 55.4136 14.2191 55.4136 16.335V16.5181ZM51.8857 16.2617C51.8857 15.0329 51.666 14.0848 51.2266 13.4175C50.7952 12.7502 50.1646 12.4165 49.3345 12.4165C48.2277 12.4165 47.4668 12.8397 47.0518 13.686V19.0938C47.4831 19.9645 48.2521 20.3999 49.3589 20.3999C51.0435 20.3999 51.8857 19.0205 51.8857 16.2617ZM63.6899 23.2441C61.7531 23.2441 60.1743 22.6501 58.9536 21.4619C57.741 20.2738 57.1348 18.6909 57.1348 16.7134V16.3716C57.1348 15.0451 57.3911 13.861 57.9038 12.8193C58.4165 11.7695 59.1408 10.9639 60.0767 10.4023C61.0207 9.83268 62.0949 9.54785 63.2993 9.54785C65.106 9.54785 66.526 10.1175 67.5596 11.2568C68.6012 12.3962 69.1221 14.0116 69.1221 16.103V17.5435H60.7114C60.8254 18.4061 61.1672 19.0978 61.7368 19.6187C62.3146 20.1395 63.043 20.3999 63.9219 20.3999C65.2809 20.3999 66.3429 19.9076 67.1079 18.9229L68.8413 20.8638C68.3123 21.6125 67.5962 22.1984 66.6929 22.6216C65.7896 23.0366 64.7886 23.2441 63.6899 23.2441ZM63.2871 12.4043C62.5872 12.4043 62.0176 12.6403 61.5781 13.1123C61.1468 13.5843 60.8701 14.2598 60.748 15.1387H65.6553V14.8579C65.639 14.0767 65.4274 13.4744 65.0205 13.0513C64.6136 12.62 64.0358 12.4043 63.2871 12.4043ZM78.5581 13.1001C78.078 13.035 77.6548 13.0024 77.2886 13.0024C75.9539 13.0024 75.0791 13.4541 74.6641 14.3574V23H71.1362V9.79199H74.4688L74.5664 11.3667C75.2744 10.1541 76.255 9.54785 77.5083 9.54785C77.8989 9.54785 78.2651 9.60075 78.6069 9.70654L78.5581 13.1001ZM83.9902 23H80.4502V9.79199H83.9902V23ZM80.2427 6.37402C80.2427 5.84505 80.4176 5.40967 80.7676 5.06787C81.1257 4.72607 81.6099 4.55518 82.2202 4.55518C82.8224 4.55518 83.3026 4.72607 83.6606 5.06787C84.0187 5.40967 84.1978 5.84505 84.1978 6.37402C84.1978 6.91113 84.0146 7.35059 83.6484 7.69238C83.2904 8.03418 82.8143 8.20508 82.2202 8.20508C81.6261 8.20508 81.146 8.03418 80.7798 7.69238C80.4217 7.35059 80.2427 6.91113 80.2427 6.37402ZM92.9868 23.2441C91.05 23.2441 89.4712 22.6501 88.2505 21.4619C87.0379 20.2738 86.4316 18.6909 86.4316 16.7134V16.3716C86.4316 15.0451 86.688 13.861 87.2007 12.8193C87.7134 11.7695 88.4377 10.9639 89.3735 10.4023C90.3175 9.83268 91.3918 9.54785 92.5962 9.54785C94.4028 9.54785 95.8229 10.1175 96.8564 11.2568C97.8981 12.3962 98.4189 14.0116 98.4189 16.103V17.5435H90.0083C90.1222 18.4061 90.464 19.0978 91.0337 19.6187C91.6115 20.1395 92.3398 20.3999 93.2188 20.3999C94.5778 20.3999 95.6398 19.9076 96.4048 18.9229L98.1382 20.8638C97.6092 21.6125 96.8931 22.1984 95.9897 22.6216C95.0864 23.0366 94.0854 23.2441 92.9868 23.2441ZM92.584 12.4043C91.8841 12.4043 91.3145 12.6403 90.875 13.1123C90.4437 13.5843 90.167 14.2598 90.0449 15.1387H94.9521V14.8579C94.9359 14.0767 94.7243 13.4744 94.3174 13.0513C93.9105 12.62 93.3327 12.4043 92.584 12.4043ZM103.68 9.79199L103.79 11.3179C104.734 10.1379 106 9.54785 107.586 9.54785C108.986 9.54785 110.028 9.95882 110.711 10.7808C111.395 11.6027 111.745 12.8315 111.761 14.4673V23H108.233V14.5527C108.233 13.804 108.071 13.2629 107.745 12.9292C107.42 12.5874 106.878 12.4165 106.122 12.4165C105.129 12.4165 104.384 12.8397 103.888 13.686V23H100.36V9.79199H103.68ZM119.94 20.3999C120.591 20.3999 121.12 20.2209 121.527 19.8628C121.934 19.5047 122.145 19.0286 122.162 18.4346H125.47C125.462 19.3298 125.217 20.1517 124.737 20.9004C124.257 21.641 123.598 22.2188 122.76 22.6338C121.93 23.0407 121.01 23.2441 120.001 23.2441C118.113 23.2441 116.624 22.646 115.533 21.4497C114.443 20.2453 113.897 18.5851 113.897 16.4692V16.2373C113.897 14.2028 114.439 12.5793 115.521 11.3667C116.603 10.1541 118.089 9.54785 119.977 9.54785C121.629 9.54785 122.951 10.0199 123.944 10.9639C124.945 11.8997 125.453 13.1489 125.47 14.7114H122.162C122.145 14.0278 121.934 13.4744 121.527 13.0513C121.12 12.62 120.583 12.4043 119.916 12.4043C119.094 12.4043 118.471 12.7054 118.048 13.3076C117.633 13.9017 117.425 14.8701 117.425 16.2129V16.5791C117.425 17.9382 117.633 18.9147 118.048 19.5088C118.463 20.1029 119.094 20.3999 119.94 20.3999ZM133.563 23.2441C131.626 23.2441 130.047 22.6501 128.827 21.4619C127.614 20.2738 127.008 18.6909 127.008 16.7134V16.3716C127.008 15.0451 127.264 13.861 127.777 12.8193C128.29 11.7695 129.014 10.9639 129.95 10.4023C130.894 9.83268 131.968 9.54785 133.172 9.54785C134.979 9.54785 136.399 10.1175 137.433 11.2568C138.474 12.3962 138.995 14.0116 138.995 16.103V17.5435H130.584C130.698 18.4061 131.04 19.0978 131.61 19.6187C132.188 20.1395 132.916 20.3999 133.795 20.3999C135.154 20.3999 136.216 19.9076 136.981 18.9229L138.714 20.8638C138.185 21.6125 137.469 22.1984 136.566 22.6216C135.663 23.0366 134.662 23.2441 133.563 23.2441ZM133.16 12.4043C132.46 12.4043 131.891 12.6403 131.451 13.1123C131.02 13.5843 130.743 14.2598 130.621 15.1387H135.528V14.8579C135.512 14.0767 135.3 13.4744 134.894 13.0513C134.487 12.62 133.909 12.4043 133.16 12.4043Z" fill="#292C35"/>
<path d="M141.192 21.2666C141.192 20.7051 141.38 20.2493 141.754 19.8994C142.136 19.5495 142.612 19.3745 143.182 19.3745C143.76 19.3745 144.236 19.5495 144.61 19.8994C144.993 20.2493 145.184 20.7051 145.184 21.2666C145.184 21.82 144.997 22.2716 144.623 22.6216C144.248 22.9634 143.768 23.1343 143.182 23.1343C142.604 23.1343 142.128 22.9634 141.754 22.6216C141.38 22.2716 141.192 21.82 141.192 21.2666Z" fill="#9013FB"/>
<path d="M14.3369 24V6.22656H8.86816C7.30566 6.22656 5.90999 6.58057 4.68115 7.28857C3.44417 7.98844 2.47982 8.98942 1.78809 10.2915C1.09635 11.5854 0.750488 13.0584 0.750488 14.7104V15.5283C0.750488 17.1803 1.09229 18.6493 1.77588 19.9351C2.45133 21.2209 3.40755 22.2178 4.64453 22.9258C5.88151 23.6338 7.27718 23.9919 8.83154 24H14.3369ZM10.6748 9.19287V21.0581H8.90479C7.47249 21.0581 6.37793 20.5902 5.62109 19.6543C4.86426 18.7184 4.4777 17.3797 4.46143 15.6382V14.6982C4.46143 12.8916 4.83577 11.5244 5.58447 10.5967C6.33317 9.66081 7.42773 9.19287 8.86816 9.19287H10.6748Z" fill="#9013FB"/>
</svg>
